<svg xmlns="http://www.w3.org/2000/svg" viewBox="0 0 512 512">
<path fill="black" d="M377.01,164.88c-4.46-13.68-12.28-26.04-20.97-36.96c-13.78-17.31-31.29-31.18-50.62-40.42c-15.65-7.48-32.36-12.72-49.37-15.86c-2.41-0.45-5.59-0.89-6.3-4.02c-8.93-39.31,18.9-63.15,41.96-52.12c5.8,2.77,11.39,8.55,16.52,10.66c5.58,2.29,12.76-1.5,13.73-7.4c1-6.1-2.02-13.56-7.8-16.74c-22.77-12.51-51.46-9.15-68.99,11.79c-14.86,17.75-15.85,57.19-2.92,76.51c1.32,1.98,3.02,2.44,4.42,4.86c-29.35,8.19-53.76,27.08-70.18,52.4c-20.07,30.95-23.75,70.52-10.02,104.93c12.28,30.77,39.04,54.78,70.81,64.24c3.42,1.02,5.26,5.34,4.6,8.69l-11.75,59.39c-3.19,16.14-17.36,31.25-33.82,31.23c-15.35-0.02-28.71-12.35-30.86-27.6c-2.31-16.35,6.58-32.55,20.67-40.06c6.26-3.34,6.79-11.95,1.2-16.34c-5.26-4.13-13.91-3.66-19.16-0.3c-23.99,15.35-37.52,43.2-32.99,71.5c4.76,29.7,30.75,53.28,60.82,55.08c33.09,1.98,63.17-21.78,69.58-54.88l13.79-69.74c0.88-4.47,4.86-7.86,9.4-7.98c40.52-1.07,76.56-27.18,89.58-65.75c13.71-40.61,2.02-86.29-28.85-113.88c-1.89-1.69-3.95-3.21-6.17-4.51c-1.39-0.81-1.66-2.61-1.28-4.08c11.08-43.14,64.12-42.54,64.12-42.54c5.03,0.06,9.45-3.52,10.27-8.52C377.94,179.97,381.1,177.42,377.01,164.88z M221.36,296.84c-19.17-5.71-34.96-21.65-40.35-41.05c-5.91-21.28,0.78-44.59,16.9-58.48c14.07-12.12,32.88-18.06,51.27-16.91c2.19,0.14,3.88,2.08,3.61,4.27l-5.69,28.8c-10.45,52.85-23.08,105.58-34.52,158.43C217.15,357.75,221.36,296.84,221.36,296.84z M287.65,220.73c24.64,28.42,21.84,72.48-6.15,97.77c-7.94,7.17-17.65,11.85-27.97,13.87c-2.31,0.45-3.94-2.12-2.73-4.06c2.4-3.84,5.08-9.08,7.37-14.73C271.74,281.25,282.8,247.96,287.65,220.73z"/>
</svg>
